<?xml version="1.0" encoding="UTF-8"?>
<svg xmlns="http://www.w3.org/2000/svg" xmlns:xlink="http://www.w3.org/1999/xlink" width="701.86pt" height="183.35pt" viewBox="0 0 701.86 183.35" version="1.1">
<defs>
<clipPath id="clip1">
  <path d="M 613 81 L 701.859375 81 L 701.859375 183 L 613 183 Z M 613 81 "/>
</clipPath>
<clipPath id="clip2">
  <path d="M 508 81 L 602 81 L 602 183.351563 L 508 183.351563 Z M 508 81 "/>
</clipPath>
</defs>
<g id="surface1">
<path style=" stroke:none;fill-rule:nonzero;fill:rgb(77.598572%,23.899841%,58.799744%);fill-opacity:1;" d="M 0 4.480469 L 143.0625 4.480469 L 143.0625 0 L 0 0 Z M 0 4.480469 "/>
<path style=" stroke:none;fill-rule:nonzero;fill:rgb(77.598572%,23.899841%,58.799744%);fill-opacity:1;" d="M 0 103.863281 L 143.0625 103.863281 L 143.0625 90.222656 L 0 90.222656 Z M 0 103.863281 "/>
<path style=" stroke:none;fill-rule:nonzero;fill:rgb(0%,65.098572%,31.399536%);fill-opacity:1;" d="M 0 16.765625 L 143.0625 16.765625 L 143.0625 10.601563 L 0 10.601563 Z M 0 16.765625 "/>
<path style=" stroke:none;fill-rule:nonzero;fill:rgb(0%,65.098572%,31.399536%);fill-opacity:1;" d="M 0 129.121094 L 143.0625 129.121094 L 143.0625 125.246094 L 0 125.246094 Z M 0 129.121094 "/>
<path style=" stroke:none;fill-rule:nonzero;fill:rgb(0%,65.098572%,31.399536%);fill-opacity:1;" d="M 0 77.554688 L 143.0625 77.554688 L 143.0625 50.40625 L 0 50.40625 Z M 0 77.554688 "/>
<path style=" stroke:none;fill-rule:nonzero;fill:rgb(0%,39.99939%,70.199585%);fill-opacity:1;" d="M 0 39.273438 L 143.0625 39.273438 L 143.0625 25.480469 L 0 25.480469 Z M 0 39.273438 "/>
<path style=" stroke:none;fill-rule:nonzero;fill:rgb(0%,39.99939%,70.199585%);fill-opacity:1;" d="M 0 119.011719 L 143.0625 119.011719 L 143.0625 112.273438 L 0 112.273438 Z M 0 119.011719 "/>
<path style=" stroke:none;fill-rule:nonzero;fill:rgb(46.699524%,47.099304%,48.199463%);fill-opacity:1;" d="M 278.625 50.609375 L 179.179688 50.609375 L 179.179688 77.441406 L 214.023438 77.441406 L 214.023438 179.558594 L 243.4375 179.558594 L 243.4375 77.441406 L 278.625 77.441406 "/>
<path style=" stroke:none;fill-rule:nonzero;fill:rgb(46.699524%,47.099304%,48.199463%);fill-opacity:1;" d="M 468.296875 82.558594 C 456.652344 82.558594 447.222656 87.378906 440.386719 96.484375 C 433.914063 86.84375 425.410156 82.558594 413.027344 82.558594 C 402.125 82.558594 393.0625 87.023438 385.859375 95.773438 L 385.859375 85.234375 L 360.902344 85.234375 L 360.902344 180.070313 L 386.78125 180.070313 L 386.78125 122.742188 C 386.78125 111.3125 393.429688 104.527344 403.417969 104.527344 C 412.285156 104.527344 417.644531 109.707031 417.644531 119.171875 L 417.644531 180.070313 L 443.339844 180.070313 L 443.339844 122.566406 C 443.339844 111.3125 449.996094 104.527344 459.976563 104.527344 C 469.03125 104.527344 474.578125 109.707031 474.578125 118.992188 L 474.578125 180.070313 L 500.453125 180.070313 L 500.453125 113.8125 C 500.453125 94.34375 487.886719 82.558594 468.296875 82.558594 "/>
<path style=" stroke:none;fill-rule:nonzero;fill:rgb(46.699524%,47.099304%,48.199463%);fill-opacity:1;" d="M 319.195313 141.859375 C 319.195313 155.253906 310.800781 163.46875 297.046875 163.46875 C 289.367188 163.46875 284.546875 159.003906 284.546875 152.042969 C 284.546875 144.714844 288.476563 141.683594 296.511719 139.363281 C 301.339844 137.933594 309.550781 137.398438 319.195313 132.933594 Z M 343.488281 166.300781 L 343.488281 108.105469 C 343.488281 90.960938 329.195313 81.316406 302.410156 81.316406 C 279.640625 81.316406 265.703125 91.6875 263.875 108.667969 L 288.191406 108.667969 C 290.003906 103.847656 295.121094 101.140625 303.300781 101.140625 C 314.195313 101.140625 318.839844 104 318.839844 111.855469 C 318.839844 120.96875 312.050781 119.535156 292.40625 122.574219 C 270.257813 125.96875 260.257813 134.183594 260.257813 152.757813 C 260.257813 172.222656 270.792969 182.941406 289.011719 182.941406 C 302.765625 182.941406 313.304688 177.582031 319.550781 167.757813 C 319.734375 172.222656 320.621094 176.15625 322.410156 179.550781 L 348.84375 179.550781 L 348.84375 179.519531 C 344.558594 177.367188 343.488281 173.261719 343.488281 166.300781 "/>
<g clip-path="url(#clip1)" clip-rule="nonzero">
<path style=" stroke:none;fill-rule:nonzero;fill:rgb(46.699524%,47.099304%,48.199463%);fill-opacity:1;" d="M 672.21875 141.859375 C 672.21875 155.253906 663.816406 163.46875 650.070313 163.46875 C 642.382813 163.46875 637.5625 159.003906 637.5625 152.042969 C 637.5625 144.714844 641.5 141.683594 649.527344 139.363281 C 654.355469 137.933594 662.570313 137.398438 672.21875 132.933594 Z M 696.503906 166.210938 L 696.503906 108.105469 C 696.503906 90.960938 682.214844 81.316406 655.425781 81.316406 C 632.660156 81.316406 618.71875 91.6875 616.890625 108.667969 L 641.207031 108.667969 C 643.019531 103.847656 648.144531 101.140625 656.316406 101.140625 C 667.210938 101.140625 671.859375 104 671.859375 111.855469 C 671.859375 120.96875 665.070313 119.535156 645.421875 122.574219 C 623.273438 125.96875 613.277344 134.183594 613.277344 152.757813 C 613.277344 172.222656 623.816406 182.941406 642.027344 182.941406 C 655.785156 182.941406 666.320313 177.582031 672.570313 167.757813 C 672.75 172.222656 673.640625 176.15625 675.425781 179.550781 L 701.863281 179.550781 L 701.863281 179.429688 C 697.574219 177.277344 696.503906 173.167969 696.503906 166.210938 "/>
</g>
<path style=" stroke:none;fill-rule:nonzero;fill:rgb(46.699524%,47.099304%,48.199463%);fill-opacity:1;" d="M 558.6875 81.902344 L 558.691406 81.894531 C 558.65625 81.898438 558.660156 81.898438 558.6875 81.902344 "/>
<g clip-path="url(#clip2)" clip-rule="nonzero">
<path style=" stroke:none;fill-rule:nonzero;fill:rgb(46.699524%,47.099304%,48.199463%);fill-opacity:1;" d="M 568.449219 121.847656 C 550.191406 117.566406 542.238281 116.851563 542.238281 110.242188 C 542.238281 104.480469 546.765625 101.636719 556.085938 101.511719 C 573.238281 101.792969 581.957031 112.335938 581.957031 112.335938 L 600.007813 96.246094 C 578.476563 81.894531 559.351563 81.933594 558.6875 81.902344 L 558.679688 81.960938 C 557.960938 81.921875 557.261719 81.839844 556.519531 81.839844 C 531.9375 81.839844 517.117188 94.34375 517.117188 113.457031 C 517.117188 129.527344 527.777344 136.316406 550.371094 142.035156 C 567.363281 146.316406 575.679688 145.785156 575.679688 154 C 575.679688 159.890625 570.257813 163.46875 559.953125 163.46875 C 558.703125 163.46875 557.570313 163.386719 556.441406 163.292969 L 556.4375 163.304688 C 539.472656 161.90625 526.484375 148.667969 526.484375 148.667969 L 508.660156 164.761719 C 531.15625 185.441406 557.140625 183.339844 558.140625 183.25 C 586.527344 182.820313 601.527344 171.273438 601.527344 150.25 C 601.527344 133.101563 590.683594 127.03125 568.449219 121.847656 "/>
</g>
</g>
</svg>
